<svg width="30" height="30" viewBox="0 0 30 30" fill="none" xmlns="http://www.w3.org/2000/svg">
<g clip-path="url(#clip0_105_9)">
<path d="M30.0038 15.0937C30.0038 6.7575 23.2875 0 15.0037 0C6.71625 0.001875 0 6.7575 0 15.0956C0 22.6275 5.48625 28.8712 12.6562 30.0037V19.4569H8.85V15.0956H12.66V11.7675C12.66 7.98562 14.9006 5.89687 18.3263 5.89687C19.9688 5.89687 21.6844 6.19125 21.6844 6.19125V9.90375H19.7925C17.9306 9.90375 17.3494 11.0681 17.3494 12.2625V15.0937H21.5081L20.8444 19.455H17.3475V30.0019C24.5175 28.8694 30.0038 22.6256 30.0038 15.0937Z" fill="white"/>
</g>
<defs>
<clipPath id="clip0_105_9">
<rect width="30" height="30" fill="white"/>
</clipPath>
</defs>
</svg>
